<?xml version="1.0" encoding="UTF-8" standalone="no"?><!DOCTYPE svg PUBLIC "-//W3C//DTD SVG 1.1//EN" "http://www.w3.org/Graphics/SVG/1.1/DTD/svg11.dtd"><svg width="100%" height="100%" viewBox="0 0 61 57" version="1.1" xmlns="http://www.w3.org/2000/svg" xmlns:xlink="http://www.w3.org/1999/xlink" xml:space="preserve" xmlns:serif="http://www.serif.com/" style="fill-rule:evenodd;clip-rule:evenodd;stroke-linejoin:round;stroke-miterlimit:2;"><g><g><path d="M60.5,8.209c0,-1.71 -1.388,-3.098 -3.098,-3.098l-54.163,0c-1.71,0 -3.098,1.388 -3.098,3.098l0,1.36c0,1.71 1.388,3.099 3.098,3.099l54.163,0c1.71,0 3.098,-1.389 3.098,-3.099l0,-1.36Z" style="fill:#fff;"/><g><ellipse cx="13.848" cy="8.889" rx="5.659" ry="8.096" style="fill:#fff;"/><ellipse cx="13.848" cy="8.889" rx="2.641" ry="3.778" style="fill:#fff;"/></g></g><g><path d="M60.5,27.894c0,-1.751 -1.421,-3.172 -3.172,-3.172l-54.015,0c-1.751,0 -3.172,1.421 -3.172,3.172l0,1.392c0,1.751 1.421,3.172 3.172,3.172l54.015,0c1.751,0 3.172,-1.421 3.172,-3.172l0,-1.392Z" style="fill:#fff;"/><g><ellipse cx="35.602" cy="28.5" rx="5.659" ry="8.096" style="fill:#fff;"/><ellipse cx="35.602" cy="28.5" rx="2.641" ry="3.778" style="fill:#fff;"/></g></g><g><path d="M60.5,47.431c0,-1.71 -1.388,-3.099 -3.098,-3.099l-54.163,0c-1.71,0 -3.098,1.389 -3.098,3.099l0,1.36c0,1.71 1.388,3.098 3.098,3.098l54.163,0c1.71,0 3.098,-1.388 3.098,-3.098l0,-1.36Z" style="fill:#fff;"/><g><ellipse cx="13.848" cy="48.111" rx="5.659" ry="8.096" style="fill:#fff;"/><ellipse cx="13.848" cy="48.111" rx="2.641" ry="3.778" style="fill:#fff;"/></g></g></g></svg>