<?xml version="1.0" encoding="UTF-8" standalone="no"?><!DOCTYPE svg PUBLIC "-//W3C//DTD SVG 1.1//EN" "http://www.w3.org/Graphics/SVG/1.1/DTD/svg11.dtd"><svg width="100%" height="100%" viewBox="0 0 56 57" version="1.1" xmlns="http://www.w3.org/2000/svg" xmlns:xlink="http://www.w3.org/1999/xlink" xml:space="preserve" xmlns:serif="http://www.serif.com/" style="fill-rule:evenodd;clip-rule:evenodd;stroke-linejoin:round;stroke-miterlimit:2;"><path id="Search" d="M35.023,40.241c-1.488,1.114 -3.117,2.04 -4.838,2.744c-2.622,1.072 -5.446,1.621 -8.278,1.621c-2.832,0 -5.657,-0.549 -8.278,-1.621c-2.529,-1.034 -4.856,-2.546 -6.834,-4.431c-1.909,-1.82 -3.487,-3.984 -4.632,-6.36c-0.978,-2.027 -1.638,-4.205 -1.95,-6.435c-0.335,-2.389 -0.275,-4.834 0.18,-7.203c0.371,-1.938 1.008,-3.824 1.887,-5.591c1.096,-2.204 2.565,-4.218 4.326,-5.938c1.763,-1.721 3.814,-3.143 6.046,-4.186c1.876,-0.876 3.875,-1.483 5.922,-1.796c1.011,-0.154 2.028,-0.231 3.05,-0.251c0.283,-0.001 0.283,-0.001 0.565,0c1.022,0.02 2.04,0.097 3.05,0.251c2.047,0.313 4.047,0.92 5.923,1.796c2.311,1.08 4.428,2.567 6.232,4.371c1.741,1.741 3.187,3.774 4.257,5.992c0.898,1.862 1.528,3.852 1.866,5.891c0.365,2.2 0.393,4.456 0.083,6.665c-0.312,2.229 -0.972,4.407 -1.949,6.434c-0.615,1.275 -1.354,2.489 -2.202,3.621l15.965,15.966l-4.425,4.426l-15.966,-15.966Zm-13.359,-36.317c-0.877,0.016 -1.75,0.082 -2.617,0.215c-1.752,0.268 -3.464,0.787 -5.071,1.537c-1.913,0.895 -3.672,2.115 -5.183,3.59c-1.511,1.475 -2.771,3.203 -3.711,5.093c-0.753,1.512 -1.298,3.127 -1.616,4.786c-0.39,2.033 -0.441,4.131 -0.154,6.18c0.268,1.909 0.833,3.774 1.67,5.51c0.982,2.038 2.336,3.893 3.973,5.453c1.695,1.616 3.69,2.914 5.858,3.8c2.247,0.918 4.667,1.388 7.094,1.388c2.426,0 4.847,-0.469 7.093,-1.388c2.168,-0.886 4.164,-2.183 5.859,-3.799c1.637,-1.561 2.99,-3.416 3.973,-5.454c0.837,-1.736 1.402,-3.601 1.669,-5.51c0.288,-2.049 0.236,-4.147 -0.154,-6.18c-0.304,-1.585 -0.815,-3.129 -1.515,-4.582c-0.917,-1.902 -2.158,-3.645 -3.651,-5.138c-1.547,-1.547 -3.362,-2.822 -5.344,-3.749c-1.606,-0.75 -3.319,-1.269 -5.071,-1.537c-0.867,-0.133 -1.74,-0.199 -2.616,-0.215c-0.244,-0.002 -0.243,-0.002 -0.486,0Z" style="fill:#628395;"/></svg>